<svg width="148.000000" height="105.000000" viewBox="0 0 148 105" fill="none" xmlns="http://www.w3.org/2000/svg" xmlns:xlink="http://www.w3.org/1999/xlink">
	<desc>
			Created with Pixso.
	</desc>
	<defs>
		<clipPath id="clip1_84">
			<rect id="logo" rx="-0.500000" width="147.000000" height="104.000000" transform="translate(0.500000 0.500000)" fill="white" fill-opacity="0"/>
		</clipPath>
	</defs>
	<rect id="logo" rx="-0.500000" width="147.000000" height="104.000000" transform="translate(0.500000 0.500000)" fill="#FFFFFF" fill-opacity="0"/>
	<g clip-path="url(#clip1_84)">
		<path id="Vector" d="M135.43 2.78L135.43 97.63L11.38 97.63L11.38 2.78L135.43 2.78Z" stroke="#000000" stroke-opacity="1.000000" stroke-width="6.000000"/>
		<path id="Vector" d="M25.16 34.58C22.82 34.58 20.71 34.11 18.83 33.18C16.94 32.25 15.32 30.99 13.95 29.4C12.59 27.79 11.52 25.98 10.76 23.99C10.03 21.97 9.67 19.9 9.67 17.79C9.67 15.58 10.06 13.48 10.85 11.49C11.64 9.47 12.74 7.68 14.13 6.13C15.53 4.54 17.17 3.3 19.06 2.39C20.97 1.46 23.04 1 25.25 1C27.56 1 29.66 1.48 31.54 2.44C33.46 3.41 35.08 4.7 36.42 6.31C37.78 7.93 38.83 9.73 39.56 11.72C40.32 13.71 40.7 15.75 40.7 17.83C40.7 20.04 40.31 22.16 39.52 24.18C38.76 26.17 37.68 27.96 36.28 29.54C34.88 31.1 33.23 32.33 31.31 33.23C29.43 34.13 27.38 34.58 25.16 34.58ZM14.86 17.79C14.86 19.34 15.11 20.85 15.59 22.31C16.08 23.77 16.76 25.08 17.64 26.23C18.55 27.35 19.65 28.24 20.92 28.89C22.2 29.54 23.63 29.87 25.21 29.87C26.85 29.87 28.31 29.53 29.58 28.84C30.86 28.16 31.92 27.24 32.77 26.09C33.65 24.91 34.32 23.6 34.78 22.17C35.23 20.71 35.46 19.25 35.46 17.79C35.46 16.23 35.22 14.74 34.73 13.31C34.28 11.85 33.59 10.56 32.68 9.44C31.77 8.29 30.68 7.39 29.4 6.73C28.15 6.08 26.76 5.75 25.21 5.75C23.57 5.75 22.11 6.09 20.83 6.78C19.56 7.46 18.48 8.38 17.6 9.53C16.72 10.68 16.03 11.97 15.55 13.4C15.09 14.83 14.86 16.29 14.86 17.79ZM87.13 1.23L87.13 34.35L81.98 34.35L81.98 19.75L65.67 19.75L65.67 34.35L60.57 34.35L60.57 1.23L65.67 1.23L65.67 15.08L81.98 15.08L81.98 1.23L87.13 1.23ZM122.46 34.58C120.12 34.58 118.01 34.11 116.12 33.18C114.24 32.25 112.61 30.99 111.25 29.4C109.88 27.79 108.82 25.98 108.06 23.99C107.33 21.97 106.96 19.9 106.96 17.79C106.96 15.58 107.36 13.48 108.15 11.49C108.94 9.47 110.03 7.68 111.43 6.13C112.83 4.54 114.47 3.3 116.35 2.39C118.26 1.46 120.33 1 122.55 1C124.86 1 126.95 1.48 128.84 2.44C130.75 3.41 132.38 4.7 133.71 6.31C135.08 7.93 136.13 9.73 136.86 11.72C137.62 13.71 138 15.75 138 17.83C138 20.04 137.6 22.16 136.81 24.18C136.05 26.17 134.97 27.96 133.58 29.54C132.18 31.1 130.52 32.33 128.61 33.23C126.73 34.13 124.67 34.58 122.46 34.58ZM112.16 17.79C112.16 19.34 112.4 20.85 112.89 22.31C113.37 23.77 114.06 25.08 114.94 26.23C115.85 27.35 116.94 28.24 118.22 28.89C119.49 29.54 120.92 29.87 122.5 29.87C124.14 29.87 125.6 29.53 126.88 28.84C128.15 28.16 129.22 27.24 130.07 26.09C130.95 24.91 131.62 23.6 132.07 22.17C132.53 20.71 132.75 19.25 132.75 17.79C132.75 16.23 132.51 14.74 132.03 13.31C131.57 11.85 130.89 10.56 129.98 9.44C129.06 8.29 127.97 7.39 126.69 6.73C125.45 6.08 124.05 5.75 122.5 5.75C120.86 5.75 119.4 6.09 118.13 6.78C116.85 7.46 115.77 8.38 114.89 9.53C114.01 10.68 113.33 11.97 112.84 13.4C112.39 14.83 112.16 16.29 112.16 17.79ZM35.7 38.5L24.94 38.5L24.94 67L19.79 67L19.79 38.5L9 38.5L9 33.88L35.7 33.88L35.7 38.5ZM67.24 62.38L67.24 67L45.05 67L45.05 33.88L66.83 33.88L66.83 38.5L50.15 38.5L50.15 47.92L64.6 47.92L64.6 52.26L50.15 52.26L50.15 62.38L67.24 62.38ZM77.56 67L77.56 33.88L100.3 33.88L100.3 38.45L82.67 38.45L82.67 47.73L92.15 47.73C95.73 47.73 98.42 48.6 100.21 50.35C102 52.06 102.9 54.33 102.9 57.16C102.9 59.05 102.51 60.75 101.72 62.24C100.96 63.7 99.8 64.87 98.25 65.74C96.73 66.58 94.8 67 92.47 67L77.56 67ZM82.67 62.43L91.78 62.43C93.18 62.43 94.3 62.16 95.15 61.63C96.03 61.11 96.66 60.44 97.02 59.63C97.42 58.79 97.61 57.92 97.61 57.02C97.61 56.11 97.45 55.28 97.11 54.5C96.78 53.72 96.17 53.1 95.29 52.63C94.44 52.13 93.24 51.89 91.69 51.89L82.67 51.89L82.67 62.43ZM134.89 62.38L134.89 67L112.7 67L112.7 33.88L134.48 33.88L134.48 38.5L117.81 38.5L117.81 47.92L132.25 47.92L132.25 52.26L117.81 52.26L117.81 62.38L134.89 62.38ZM35.58 66.53L35.58 99.65L30.44 99.65L30.44 85.05L14.12 85.05L14.12 99.65L9.02 99.65L9.02 66.53L14.12 66.53L14.12 80.39L30.44 80.39L30.44 66.53L35.58 66.53ZM53.14 66.53L57.97 66.53L70.54 99.65L65.17 99.65L61.75 90.65L49.26 90.65L45.89 99.65L40.47 99.65L53.14 66.53ZM60.75 86.78L55.55 72.27L50.17 86.78L60.75 86.78ZM70.35 106L70.35 95.03L71.9 95.03C72.75 95.03 73.48 94.69 74.09 94.01C74.73 93.32 75.26 92.23 75.68 90.74C76.14 89.25 76.49 87.29 76.73 84.86C77.01 82.41 77.2 79.41 77.32 75.86L77.55 66.53L98.38 66.53L98.38 95.03L102.48 95.03L102.48 106L97.97 106L97.97 99.65L74.86 99.65L74.86 106L70.35 106ZM78.37 95.03L93.23 95.03L93.23 71.15L82.29 71.15L82.15 76.56C82.06 80.14 81.88 83.17 81.61 85.66C81.33 88.11 80.94 90.1 80.42 91.63C79.91 93.15 79.22 94.29 78.37 95.03ZM122.28 99.88C119.94 99.88 117.83 99.42 115.94 98.49C114.06 97.55 112.43 96.29 111.07 94.71C109.7 93.09 108.64 91.29 107.88 89.3C107.15 87.27 106.78 85.21 106.78 83.09C106.78 80.88 107.18 78.78 107.97 76.79C108.76 74.77 109.85 72.99 111.25 71.43C112.65 69.84 114.29 68.6 116.17 67.7C118.08 66.77 120.15 66.3 122.37 66.3C124.68 66.3 126.77 66.78 128.66 67.75C130.57 68.71 132.19 70 133.53 71.62C134.9 73.23 135.95 75.04 136.67 77.03C137.43 79.02 137.82 81.06 137.82 83.14C137.82 85.35 137.42 87.46 136.63 89.48C135.87 91.47 134.79 93.26 133.39 94.85C132 96.4 130.34 97.63 128.43 98.53C126.54 99.43 124.49 99.88 122.28 99.88ZM111.98 83.09C111.98 84.65 112.22 86.15 112.71 87.62C113.19 89.08 113.88 90.38 114.76 91.53C115.67 92.65 116.76 93.54 118.04 94.19C119.31 94.85 120.74 95.17 122.32 95.17C123.96 95.17 125.42 94.83 126.7 94.15C127.97 93.46 129.03 92.55 129.89 91.39C130.77 90.21 131.44 88.91 131.89 87.48C132.35 86.02 132.57 84.55 132.57 83.09C132.57 81.54 132.33 80.04 131.85 78.61C131.39 77.15 130.71 75.86 129.79 74.74C128.88 73.59 127.79 72.69 126.51 72.04C125.27 71.38 123.87 71.06 122.32 71.06C120.68 71.06 119.22 71.4 117.95 72.08C116.67 72.77 115.59 73.68 114.71 74.84C113.83 75.99 113.15 77.28 112.66 78.71C112.21 80.14 111.98 81.6 111.98 83.09Z" fill="#000000" fill-opacity="1.000000" fill-rule="nonzero"/>
	</g>
</svg>
